# Blender v2.81 (sub 16) OBJ File: 'testfloor.blend'
# www.blender.org
mtllib testfloor.mtl
o Cube_Cube.001
v -4.500000 -0.500000 13.277447
v 8.842138 5.500000 9.236792
v -4.500000 -0.500000 -13.277447
v 8.726791 5.500000 7.770440
v 8.842138 -0.500000 9.236792
v 8.842138 0.500000 9.236792
v 8.726791 -0.500000 -7.770440
v 8.726791 5.500000 -7.770440
v 8.842138 5.500000 -9.236792
v 14.500000 -0.500000 -1.923232
v 14.500000 -0.500000 1.923232
v -5.000000 5.500000 -15.000000
v -5.000000 0.450000 13.500000
v -5.000000 0.450000 -13.500000
v 8.842138 0.500000 -9.236792
v -5.000000 5.500000 -13.466588
v 15.000000 0.500000 -3.000001
v 15.000000 0.500000 3.000001
v -5.000000 -0.450000 -13.500000
v -5.000000 -0.450000 13.500000
v 8.842138 -0.500000 -9.236792
v 8.726791 -0.500000 7.770440
v 15.000000 -0.500000 3.000001
v 15.000000 -0.500000 -3.000001
v -5.000000 -0.500000 -15.000000
v -5.000000 -0.500000 15.000000
v -5.000000 0.500000 15.000000
v -5.000000 0.500000 -15.000000
v -5.000000 0.500000 13.471989
v -5.000000 0.500000 -13.466588
v -5.000000 4.500000 -13.466588
v -5.000000 4.500000 -15.000000
v 8.842138 4.500000 -9.236792
v 8.842138 4.500000 9.236792
v -5.000000 4.500000 15.000000
v 15.000000 4.500000 -3.000001
v 15.000000 4.500000 3.000001
v -5.000000 4.500000 13.471989
v -5.000000 5.500000 15.000000
v 15.000000 5.500000 -3.000001
v 15.000000 5.500000 3.000001
v -4.500000 5.500000 13.277447
v -4.500000 5.500000 -13.277447
v 14.500000 5.500000 -1.923232
v 14.500000 5.500000 1.923232
v -5.000000 5.500000 13.471989
vt 0.387500 0.012500
vt 0.612500 0.012500
vt 0.612500 0.237500
vt 0.387500 0.237500
vt 0.375000 0.250000
vt 0.625000 0.250000
vt 0.625000 0.500000
vt 0.375000 0.500000
vt 0.375000 0.729692
vt 0.375000 0.520308
vt 0.375000 0.551756
vt 0.375000 0.698244
vt 0.375000 0.750000
vt 0.625000 0.750000
vt 0.625000 1.000000
vt 0.375000 1.000000
vt 0.134030 0.513348
vt 0.134030 0.736652
vt 0.625000 0.520308
vt 0.625000 0.729692
vt 0.625000 0.698244
vt 0.625000 0.551756
vt 0.375000 0.500000
vt 0.625000 0.500000
vt 0.625000 0.750000
vt 0.375000 0.750000
vt 0.865970 0.513348
vt 0.865970 0.736652
vt 0.625000 1.000000
vt 0.625000 0.750000
vt 0.625000 0.237222
vt 0.625000 0.237222
vt 0.625000 0.250000
vt 0.625000 0.500000
vt 0.625000 0.500000
vt 0.625000 0.012733
vt 0.625000 0.000000
vt 0.625000 0.000000
vt 0.625000 0.012733
vt 0.625000 0.750000
vt 0.125000 0.750000
vt 0.125000 0.500000
vt 0.375000 0.000000
vt 0.625000 0.000000
vt 0.625000 0.012733
vt 0.625000 0.237222
vt 0.625000 0.250000
vt 0.625000 0.500000
vt 0.625000 0.750000
vt 0.625000 1.000000
vt 0.625000 0.750000
vt 0.625000 0.500000
vt 0.875000 0.737267
vt 0.875000 0.750000
vt 0.875000 0.500000
vt 0.875000 0.512778
vt 0.000000 0.000000
vt 0.000000 0.000000
vt 0.000000 0.000000
vt 0.000000 0.000000
vt 0.000000 0.000000
vt 0.000000 0.000000
vt 0.000000 0.000000
vt 0.000000 0.000000
vt 0.000000 0.000000
vt 0.000000 0.000000
vt 0.000000 0.000000
vt 0.000000 0.000000
vt 0.000000 0.000000
vt 0.000000 0.000000
vt 0.000000 0.000000
vt 0.000000 0.000000
vn -1.0000 0.0000 0.0000
vn 0.3844 0.0000 -0.9232
vn 0.0000 -1.0000 0.0000
vn 0.3844 0.0000 0.9232
vn 0.0000 1.0000 0.0000
vn 1.0000 0.0000 0.0000
vn 0.7116 0.0000 -0.7026
vn 0.7116 0.0000 0.7026
vn -0.3844 0.0000 -0.9232
vn -0.7116 0.0000 0.7026
vn -0.3844 0.0000 0.9232
vn -0.7116 0.0000 -0.7026
usemtl None
s off
f 20/1/1 13/2/1 14/3/1 19/4/1
f 25/5/2 28/6/2 15/7/2 21/8/2
f 22/9/3 7/10/3 10/11/3 11/12/3
f 5/13/4 6/14/4 27/15/4 26/16/4
f 3/17/3 7/10/3 22/9/3 1/18/3
f 8/19/5 4/20/5 45/21/5 44/22/5
f 24/23/6 17/24/6 18/25/6 23/26/6
f 8/19/5 43/27/5 42/28/5 4/20/5
f 21/8/7 15/7/7 17/24/7 24/23/7
f 6/14/8 5/13/8 23/26/8 18/25/8
f 27/15/9 35/29/9 34/30/9 6/14/9
f 28/6/1 30/31/1 31/32/1 32/33/1
f 17/24/10 36/34/10 33/35/10 15/7/10
f 29/36/1 27/37/1 35/38/1 38/39/1
f 18/25/1 37/40/1 36/34/1 17/24/1
f 3/17/3 1/18/3 26/41/3 25/42/3
f 7/10/3 3/17/3 25/42/3 21/8/3
f 1/18/3 22/9/3 5/13/3 26/41/3
f 11/12/3 10/11/3 24/23/3 23/26/3
f 10/11/3 7/10/3 21/8/3 24/23/3
f 22/9/3 11/12/3 23/26/3 5/13/3
f 20/1/1 19/4/1 25/5/1 26/43/1
f 13/2/1 20/1/1 26/43/1 27/37/1
f 14/3/1 30/31/1 28/6/1
f 19/4/1 14/3/1 28/6/1 25/5/1
f 15/7/11 33/35/11 32/33/11 28/6/11
f 29/36/1 13/2/1 27/37/1
f 6/14/12 34/30/12 37/40/12 18/25/12
f 30/31/1 14/3/1 13/2/1 29/36/1
f 38/39/1 35/38/1 39/44/1 46/45/1
f 31/32/1 38/39/1 46/45/1 16/46/1
f 33/35/2 32/33/2 12/47/2 9/48/2
f 35/29/4 34/30/4 2/49/4 39/50/4
f 34/30/8 37/40/8 41/51/8 2/49/8
f 32/33/1 31/32/1 16/46/1 12/47/1
f 37/40/6 36/34/6 40/52/6 41/51/6
f 36/34/7 33/35/7 9/48/7 40/52/7
f 42/28/5 46/53/5 39/54/5
f 43/27/5 8/19/5 9/48/5 12/55/5
f 4/20/5 42/28/5 39/54/5 2/49/5
f 44/22/5 45/21/5 41/51/5 40/52/5
f 45/21/5 4/20/5 2/49/5 41/51/5
f 8/19/5 44/22/5 40/52/5 9/48/5
f 46/53/5 42/28/5 43/27/5 16/56/5
f 16/56/5 43/27/5 12/55/5
f 29/57/5 27/58/5 6/59/5 18/60/5 17/61/5 15/62/5 28/63/5 30/64/5
f 38/65/3 31/66/3 32/67/3 33/68/3 36/69/3 37/70/3 34/71/3 35/72/3
